# xmcd CD database file
#
# Track frame offsets:
#	150
#	14597
#	31583
#	48722
#	68087
#	79194
#	92544
#	108687
#	129396
#	146458
#	166976
#	185794
#	205587
#	226592
#	248416
#	266635
#	281326
#	299768
#
# Disc length: 4407 seconds
#
# Revision: 0
# Processed by: cddbd v1.5.1PL0 Copyright (c) Steve Scherf et al.
# Submitted via: CDex 1.51
#
DISCID=fa113512
DTITLE=SIAM　SHAID - SIAM　SHAID　BEST
DYEAR=1900
DGENRE=Vocal
TTITLE0=せつなさよりも遠くへ（アルバム・ヴァージョン）
TTITLE1=１／３の純情な感情
TTITLE2=ＮＥＶＥＲ　ＥＮＤ
TTITLE3=曇りのち晴れ
TTITLE4=ＭＯＮＫＥＹ　ＳＣＩＥＮＣＥ
TTITLE5=Ｎｏ！　Ｍａｒｉｏｎｅｔｔｅ
TTITLE6=ブランコ
TTITLE7=Ｃｒｉｍｅ
TTITLE8=しりたがり症候群
TTITLE9=ＭＯＯＮ
TTITLE10=Ｇｒａｙｉｓｈ　Ｗｉｎｇ
TTITLE11=Ｖｉｒｔｕｏｓｏ（インストゥルメンタル）
TTITLE12=Ｔｅａｒｓ　Ｉ　Ｃｒｉｅｄ
TTITLE13=ＰＲＡＹＥＲ
TTITLE14=Ｂｌｏｏｄｙ　Ｔｒａｉｎ
TTITLE15=Ｉ　ａｍ　Ｉ
TTITLE16=ＰＡＳＳＩＯＮ
TTITLE17=Ｓｏｌｏｍｏｎ’ｓ　ｓｅａｌ
EXTD=
EXTT0=
EXTT1=
EXTT2=
EXTT3=
EXTT4=
EXTT5=
EXTT6=
EXTT7=
EXTT8=
EXTT9=
EXTT10=
EXTT11=
EXTT12=
EXTT13=
EXTT14=
EXTT15=
EXTT16=
EXTT17=
PLAYORDER=
